<svg xmlns="http://www.w3.org/2000/svg" xmlns:xlink="http://www.w3.org/1999/xlink" width="5760" zoomAndPan="magnify" viewBox="0 0 4320 2430.000006" height="3240" preserveAspectRatio="xMidYMid meet" version="1.0"><defs><g/><clipPath id="7ed2094758"><path d="M 4039 1112 L 4319.109375 1112 L 4319.109375 1501 L 4039 1501 Z M 4039 1112 " clip-rule="nonzero"/></clipPath></defs><g fill="#ffa800" fill-opacity="1"><g transform="translate(0.888518, 1399.829333)"><g><path d="M 53.65625 93.90625 C 46.945312 93.90625 41.726562 90.734375 38 84.390625 C 34.28125 78.054688 32.789062 69.300781 33.53125 58.125 C 36.507812 -35.03125 44.707031 -127.8125 58.125 -220.21875 C 71.539062 -312.625 87.5625 -394.972656 106.1875 -467.265625 C 111.40625 -477.691406 117.742188 -485.140625 125.203125 -489.609375 C 114.765625 -492.597656 109.546875 -495.953125 109.546875 -499.671875 C 109.546875 -504.890625 119.234375 -508.242188 138.609375 -509.734375 C 166.179688 -509.734375 212.007812 -508.425781 276.09375 -505.8125 C 340.1875 -503.207031 379.316406 -499.671875 393.484375 -495.203125 C 401.679688 -492.960938 405.78125 -489.238281 405.78125 -484.03125 C 405.78125 -477.320312 398.695312 -473.96875 384.53125 -473.96875 C 330.875 -473.96875 264.550781 -476.945312 185.5625 -482.90625 C 185.5625 -477.6875 184.441406 -472.097656 182.203125 -466.140625 C 171.773438 -435.585938 161.53125 -395.53125 151.46875 -345.96875 C 141.40625 -296.414062 128.550781 -227.296875 112.90625 -138.609375 C 136.007812 -137.117188 158.550781 -135.628906 180.53125 -134.140625 C 202.519531 -132.648438 218.359375 -131.160156 228.046875 -129.671875 C 232.515625 -128.921875 236.238281 -127.242188 239.21875 -124.640625 C 242.195312 -122.035156 243.6875 -119.613281 243.6875 -117.375 C 243.6875 -112.15625 235.863281 -109.546875 220.21875 -109.546875 C 209.78125 -109.546875 201.207031 -109.921875 194.5 -110.671875 C 155.75 -110.671875 127.429688 -112.160156 109.546875 -115.140625 L 77.125 68.1875 C 75.632812 77.875 73.210938 84.582031 69.859375 88.3125 C 66.503906 92.039062 61.101562 93.90625 53.65625 93.90625 Z M 53.65625 93.90625 "/></g></g></g><g fill="#ffa800" fill-opacity="1"><g transform="translate(306.057433, 1399.829333)"><g><path d="M 289.515625 124.078125 C 267.160156 124.078125 247.226562 111.78125 229.71875 87.1875 C 212.207031 62.59375 203.453125 30.921875 203.453125 -7.828125 L 203.453125 -15.65625 C 163.203125 34.28125 125.566406 59.25 90.546875 59.25 C 71.171875 59.25 54.960938 52.539062 41.921875 39.125 C 28.878906 25.707031 22.359375 8.566406 22.359375 -12.296875 C 22.359375 -49.554688 32.234375 -86.441406 51.984375 -122.953125 C 71.734375 -159.472656 97.628906 -189.285156 129.671875 -212.390625 C 161.710938 -235.492188 195.617188 -247.046875 231.390625 -247.046875 C 245.546875 -247.046875 257.84375 -244.0625 268.28125 -238.09375 C 280.945312 -251.507812 296.96875 -258.21875 316.34375 -258.21875 C 333.488281 -258.21875 342.0625 -251.140625 342.0625 -236.984375 C 342.0625 -231.023438 341.316406 -226.550781 339.828125 -223.5625 C 321.941406 -181.09375 305.359375 -134.703125 290.078125 -84.390625 C 274.804688 -34.085938 267.171875 5.960938 267.171875 35.765625 C 267.171875 56.640625 269.59375 72.289062 274.4375 82.71875 C 279.28125 93.15625 285.800781 98.375 294 98.375 C 302.9375 97.625 315.414062 90.171875 331.4375 76.015625 C 347.457031 61.859375 365.710938 38.382812 386.203125 5.59375 C 406.703125 -27.195312 427.757812 -69.304688 449.375 -120.734375 C 453.84375 -128.921875 458.3125 -133.015625 462.78125 -133.015625 C 465.019531 -132.273438 467.070312 -130.597656 468.9375 -127.984375 C 470.800781 -125.378906 471.734375 -121.84375 471.734375 -117.375 C 471.734375 -112.15625 470.242188 -106.9375 467.265625 -101.71875 C 434.472656 -25.707031 402.613281 30.925781 371.6875 68.1875 C 340.757812 105.445312 313.367188 124.078125 289.515625 124.078125 Z M 87.1875 0 C 87.1875 17.132812 93.894531 25.703125 107.3125 25.703125 C 121.46875 25.703125 137.300781 17.878906 154.8125 2.234375 C 172.332031 -13.410156 189.660156 -33.53125 206.796875 -58.125 C 210.523438 -84.207031 216.488281 -109.726562 224.6875 -134.6875 C 232.882812 -159.65625 243.691406 -188.164062 257.109375 -220.21875 C 253.378906 -223.195312 247.414062 -224.6875 239.21875 -224.6875 C 222.820312 -224.6875 202.515625 -212.015625 178.296875 -186.671875 C 154.078125 -161.335938 132.835938 -130.785156 114.578125 -95.015625 C 96.316406 -59.242188 87.1875 -27.570312 87.1875 0 Z M 87.1875 0 "/></g></g></g><g fill="#ffa800" fill-opacity="1"><g transform="translate(688.356916, 1399.829333)"><g><path d="M 156.5 89.421875 C 141.59375 89.421875 126.128906 83.644531 110.109375 72.09375 C 94.085938 60.550781 80.859375 43.410156 70.421875 20.671875 C 59.992188 -2.054688 54.78125 -29.066406 54.78125 -60.359375 C 54.78125 -101.347656 60.738281 -147.738281 72.65625 -199.53125 C 84.582031 -251.320312 99.113281 -302.554688 116.25 -353.234375 L 95.015625 -353.234375 C 86.078125 -353.234375 79.1875 -354.351562 74.34375 -356.59375 C 69.5 -358.832031 67.078125 -361.066406 67.078125 -363.296875 C 67.078125 -367.023438 68.9375 -370.003906 72.65625 -372.234375 C 76.382812 -374.472656 81.226562 -375.96875 87.1875 -376.71875 L 126.3125 -380.0625 C 135.257812 -406.144531 144.945312 -429.617188 155.375 -450.484375 C 164.320312 -464.648438 173.640625 -474.523438 183.328125 -480.109375 C 193.015625 -485.703125 205.3125 -488.5 220.21875 -488.5 C 226.925781 -488.5 232.328125 -486.820312 236.421875 -483.46875 C 240.523438 -480.113281 242.578125 -475.457031 242.578125 -469.5 C 242.578125 -465.019531 241.457031 -459.800781 239.21875 -453.84375 C 233.257812 -441.175781 223.941406 -417.328125 211.265625 -382.296875 L 382.296875 -381.1875 C 394.972656 -381.1875 401.3125 -377.832031 401.3125 -371.125 C 401.3125 -366.65625 398.515625 -362.554688 392.921875 -358.828125 C 387.328125 -355.097656 380.429688 -353.234375 372.234375 -353.234375 L 200.09375 -353.234375 C 147.925781 -208.660156 121.84375 -97.25 121.84375 -19 C 121.84375 6.332031 125.378906 26.265625 132.453125 40.796875 C 139.535156 55.328125 150.53125 62.59375 165.4375 62.59375 C 184.8125 62.59375 207.164062 45.078125 232.5 10.046875 C 257.84375 -24.972656 280.945312 -68.566406 301.8125 -120.734375 C 303.300781 -124.453125 305.164062 -127.425781 307.40625 -129.65625 C 309.644531 -131.894531 312.253906 -133.015625 315.234375 -133.015625 C 316.722656 -133.015625 318.210938 -131.523438 319.703125 -128.546875 C 321.191406 -125.566406 321.9375 -121.84375 321.9375 -117.375 C 321.9375 -111.414062 321.191406 -106.195312 319.703125 -101.71875 C 301.066406 -49.550781 276.097656 -4.65625 244.796875 32.96875 C 213.503906 70.601562 184.070312 89.421875 156.5 89.421875 Z M 156.5 89.421875 "/></g></g></g><g fill="#ffa800" fill-opacity="1"><g transform="translate(920.866575, 1399.829333)"><g><path d="M 156.5 89.421875 C 141.59375 89.421875 126.128906 83.644531 110.109375 72.09375 C 94.085938 60.550781 80.859375 43.410156 70.421875 20.671875 C 59.992188 -2.054688 54.78125 -29.066406 54.78125 -60.359375 C 54.78125 -101.347656 60.738281 -147.738281 72.65625 -199.53125 C 84.582031 -251.320312 99.113281 -302.554688 116.25 -353.234375 L 95.015625 -353.234375 C 86.078125 -353.234375 79.1875 -354.351562 74.34375 -356.59375 C 69.5 -358.832031 67.078125 -361.066406 67.078125 -363.296875 C 67.078125 -367.023438 68.9375 -370.003906 72.65625 -372.234375 C 76.382812 -374.472656 81.226562 -375.96875 87.1875 -376.71875 L 126.3125 -380.0625 C 135.257812 -406.144531 144.945312 -429.617188 155.375 -450.484375 C 164.320312 -464.648438 173.640625 -474.523438 183.328125 -480.109375 C 193.015625 -485.703125 205.3125 -488.5 220.21875 -488.5 C 226.925781 -488.5 232.328125 -486.820312 236.421875 -483.46875 C 240.523438 -480.113281 242.578125 -475.457031 242.578125 -469.5 C 242.578125 -465.019531 241.457031 -459.800781 239.21875 -453.84375 C 233.257812 -441.175781 223.941406 -417.328125 211.265625 -382.296875 L 382.296875 -381.1875 C 394.972656 -381.1875 401.3125 -377.832031 401.3125 -371.125 C 401.3125 -366.65625 398.515625 -362.554688 392.921875 -358.828125 C 387.328125 -355.097656 380.429688 -353.234375 372.234375 -353.234375 L 200.09375 -353.234375 C 147.925781 -208.660156 121.84375 -97.25 121.84375 -19 C 121.84375 6.332031 125.378906 26.265625 132.453125 40.796875 C 139.535156 55.328125 150.53125 62.59375 165.4375 62.59375 C 184.8125 62.59375 207.164062 45.078125 232.5 10.046875 C 257.84375 -24.972656 280.945312 -68.566406 301.8125 -120.734375 C 303.300781 -124.453125 305.164062 -127.425781 307.40625 -129.65625 C 309.644531 -131.894531 312.253906 -133.015625 315.234375 -133.015625 C 316.722656 -133.015625 318.210938 -131.523438 319.703125 -128.546875 C 321.191406 -125.566406 321.9375 -121.84375 321.9375 -117.375 C 321.9375 -111.414062 321.191406 -106.195312 319.703125 -101.71875 C 301.066406 -49.550781 276.097656 -4.65625 244.796875 32.96875 C 213.503906 70.601562 184.070312 89.421875 156.5 89.421875 Z M 156.5 89.421875 "/></g></g></g><g fill="#ffa800" fill-opacity="1"><g transform="translate(1153.376303, 1399.829333)"><g><path d="M 118.484375 100.609375 C 92.398438 100.609375 71.71875 90.359375 56.4375 69.859375 C 41.164062 49.367188 33.53125 23.101562 33.53125 -8.9375 C 33.53125 -23.101562 36.507812 -39.875 42.46875 -59.25 C 48.4375 -78.625 56.640625 -96.878906 67.078125 -114.015625 C 61.109375 -134.140625 58.125 -153.515625 58.125 -172.140625 C 58.125 -204.191406 67.8125 -231.394531 87.1875 -253.75 C 106.5625 -276.101562 132.273438 -287.28125 164.328125 -287.28125 C 202.328125 -287.28125 230.828125 -273.863281 249.828125 -247.03125 C 268.835938 -220.207031 278.34375 -186.675781 278.34375 -146.4375 C 278.34375 -103.957031 269.023438 -59.988281 250.390625 -14.53125 C 309.265625 -22.726562 352.863281 -58.128906 381.1875 -120.734375 C 385.65625 -128.921875 389.753906 -133.015625 393.484375 -133.015625 C 399.441406 -133.015625 402.421875 -128.171875 402.421875 -118.484375 C 402.421875 -114.015625 402.050781 -110.664062 401.3125 -108.4375 C 396.09375 -92.78125 385.84375 -76.007812 370.5625 -58.125 C 355.289062 -40.238281 336.101562 -24.773438 313 -11.734375 C 289.894531 1.304688 264.925781 8.570312 238.09375 10.0625 C 223.195312 37.632812 205.6875 59.617188 185.5625 76.015625 C 165.4375 92.410156 143.078125 100.609375 118.484375 100.609375 Z M 81.609375 -172.140625 C 81.609375 -163.203125 82.722656 -152.398438 84.953125 -139.734375 C 112.523438 -175.503906 144.195312 -193.390625 179.96875 -193.390625 C 193.382812 -193.390625 205.304688 -190.96875 215.734375 -186.125 C 226.171875 -181.28125 231.390625 -176.25 231.390625 -171.03125 C 231.390625 -168.050781 229.15625 -165.441406 224.6875 -163.203125 C 179.226562 -140.847656 144.945312 -106.195312 121.84375 -59.25 C 148.675781 -28.695312 182.957031 -13.421875 224.6875 -13.421875 L 228.046875 -13.421875 C 236.984375 -34.285156 244.0625 -56.640625 249.28125 -80.484375 C 254.5 -104.328125 257.109375 -126.6875 257.109375 -147.5625 C 257.109375 -180.34375 249.28125 -207.910156 233.625 -230.265625 C 217.976562 -252.628906 194.503906 -263.8125 163.203125 -263.8125 C 141.585938 -263.8125 122.582031 -254.679688 106.1875 -236.421875 C 89.800781 -218.160156 81.609375 -196.734375 81.609375 -172.140625 Z M 98.375 27.953125 C 98.375 42.847656 101.539062 54.765625 107.875 63.703125 C 114.207031 72.648438 121.84375 77.125 130.78125 77.125 C 147.175781 77.125 162.828125 71.160156 177.734375 59.234375 C 192.640625 47.316406 205.679688 30.925781 216.859375 10.0625 C 175.867188 7.820312 140.84375 -7.828125 111.78125 -36.890625 C 102.84375 -13.785156 98.375 7.828125 98.375 27.953125 Z M 98.375 27.953125 "/></g></g></g><g fill="#ffa800" fill-opacity="1"><g transform="translate(1466.370148, 1399.829333)"><g/></g></g><g fill="#ffa800" fill-opacity="1"><g transform="translate(1857.612315, 1399.829333)"><g><path d="M 289.515625 124.078125 C 267.160156 124.078125 247.226562 111.78125 229.71875 87.1875 C 212.207031 62.59375 203.453125 30.921875 203.453125 -7.828125 L 203.453125 -15.65625 C 163.203125 34.28125 125.566406 59.25 90.546875 59.25 C 71.171875 59.25 54.960938 52.539062 41.921875 39.125 C 28.878906 25.707031 22.359375 8.566406 22.359375 -12.296875 C 22.359375 -49.554688 32.234375 -86.441406 51.984375 -122.953125 C 71.734375 -159.472656 97.628906 -189.285156 129.671875 -212.390625 C 161.710938 -235.492188 195.617188 -247.046875 231.390625 -247.046875 C 245.546875 -247.046875 257.84375 -244.0625 268.28125 -238.09375 C 280.945312 -251.507812 296.96875 -258.21875 316.34375 -258.21875 C 333.488281 -258.21875 342.0625 -251.140625 342.0625 -236.984375 C 342.0625 -231.023438 341.316406 -226.550781 339.828125 -223.5625 C 321.941406 -181.09375 305.359375 -134.703125 290.078125 -84.390625 C 274.804688 -34.085938 267.171875 5.960938 267.171875 35.765625 C 267.171875 56.640625 269.59375 72.289062 274.4375 82.71875 C 279.28125 93.15625 285.800781 98.375 294 98.375 C 302.9375 97.625 315.414062 90.171875 331.4375 76.015625 C 347.457031 61.859375 365.710938 38.382812 386.203125 5.59375 C 406.703125 -27.195312 427.757812 -69.304688 449.375 -120.734375 C 453.84375 -128.921875 458.3125 -133.015625 462.78125 -133.015625 C 465.019531 -132.273438 467.070312 -130.597656 468.9375 -127.984375 C 470.800781 -125.378906 471.734375 -121.84375 471.734375 -117.375 C 471.734375 -112.15625 470.242188 -106.9375 467.265625 -101.71875 C 434.472656 -25.707031 402.613281 30.925781 371.6875 68.1875 C 340.757812 105.445312 313.367188 124.078125 289.515625 124.078125 Z M 87.1875 0 C 87.1875 17.132812 93.894531 25.703125 107.3125 25.703125 C 121.46875 25.703125 137.300781 17.878906 154.8125 2.234375 C 172.332031 -13.410156 189.660156 -33.53125 206.796875 -58.125 C 210.523438 -84.207031 216.488281 -109.726562 224.6875 -134.6875 C 232.882812 -159.65625 243.691406 -188.164062 257.109375 -220.21875 C 253.378906 -223.195312 247.414062 -224.6875 239.21875 -224.6875 C 222.820312 -224.6875 202.515625 -212.015625 178.296875 -186.671875 C 154.078125 -161.335938 132.835938 -130.785156 114.578125 -95.015625 C 96.316406 -59.242188 87.1875 -27.570312 87.1875 0 Z M 87.1875 0 "/></g></g></g><g fill="#ffa800" fill-opacity="1"><g transform="translate(2239.911865, 1399.829333)"><g/></g></g><g fill="#ffa800" fill-opacity="1"><g transform="translate(2631.154169, 1399.829333)"><g><path d="M 537.6875 117.375 C 522.03125 117.375 508.238281 109.175781 496.3125 92.78125 C 484.394531 76.382812 478.4375 54.023438 478.4375 25.703125 C 478.4375 -4.847656 486.632812 -55.894531 503.03125 -127.4375 C 519.425781 -198.976562 537.867188 -272.195312 558.359375 -347.09375 C 578.859375 -421.988281 594.320312 -474.335938 604.75 -504.140625 C 561.53125 -464.648438 522.78125 -419.9375 488.5 -370 C 454.21875 -320.070312 425.523438 -269.023438 402.421875 -216.859375 C 386.023438 -141.585938 367.769531 -64.082031 347.65625 15.65625 C 345.414062 24.59375 341.875 31.296875 337.03125 35.765625 C 332.1875 40.242188 326.785156 42.484375 320.828125 42.484375 C 316.347656 42.484375 312.617188 40.0625 309.640625 35.21875 C 306.660156 30.375 305.546875 23.851562 306.296875 15.65625 C 316.722656 -73.03125 326.96875 -150.722656 337.03125 -217.421875 C 347.09375 -284.117188 361.4375 -372.988281 380.0625 -484.03125 C 342.800781 -444.53125 310.007812 -403.910156 281.6875 -362.171875 C 253.375 -320.441406 235.863281 -290.632812 229.15625 -272.75 C 227.664062 -266.789062 219.46875 -223.941406 204.5625 -144.203125 C 185.1875 -45.085938 174.378906 8.941406 172.140625 17.890625 C 167.671875 32.796875 159.476562 40.25 147.5625 40.25 C 143.082031 40.25 139.164062 38.195312 135.8125 34.09375 C 132.457031 30 130.78125 24.597656 130.78125 17.890625 C 130.78125 0.742188 137.117188 -67.070312 149.796875 -185.5625 C 151.285156 -202.695312 156.128906 -248.523438 164.328125 -323.046875 C 172.523438 -397.578125 176.25 -445.273438 175.5 -466.140625 C 138.988281 -438.566406 110.671875 -405.40625 90.546875 -366.65625 C 70.421875 -327.90625 60.359375 -290.644531 60.359375 -254.875 C 60.359375 -230.28125 65.578125 -208.664062 76.015625 -190.03125 C 80.484375 -181.09375 83.085938 -174.757812 83.828125 -171.03125 C 84.578125 -167.300781 83.085938 -164.320312 79.359375 -162.09375 C 75.640625 -159.851562 70.796875 -161.523438 64.828125 -167.109375 C 58.867188 -172.703125 54.023438 -179.226562 50.296875 -186.6875 C 39.117188 -206.800781 33.53125 -230.644531 33.53125 -258.21875 C 33.53125 -302.1875 46.570312 -347.085938 72.65625 -392.921875 C 98.738281 -438.753906 131.898438 -473.59375 172.140625 -497.4375 C 180.335938 -502.65625 189.28125 -505.265625 198.96875 -505.265625 C 213.132812 -505.265625 225.617188 -500.601562 236.421875 -491.28125 C 247.222656 -481.96875 252.625 -471.722656 252.625 -460.546875 C 252.625 -441.171875 248.15625 -404.65625 239.21875 -351 C 264.550781 -391.238281 290.628906 -429.429688 317.453125 -465.578125 C 344.285156 -501.722656 365.15625 -523.894531 380.0625 -532.09375 C 386.769531 -536.5625 394.597656 -538.796875 403.546875 -538.796875 C 416.210938 -538.796875 427.390625 -534.882812 437.078125 -527.0625 C 446.765625 -519.238281 451.609375 -508.992188 451.609375 -496.328125 C 451.609375 -479.929688 448.441406 -454.40625 442.109375 -419.75 C 435.773438 -385.09375 428.878906 -348.765625 421.421875 -310.765625 C 450.484375 -362.179688 482.523438 -410.429688 517.546875 -455.515625 C 552.578125 -500.609375 583.507812 -532.097656 610.34375 -549.984375 C 616.300781 -555.191406 623.378906 -557.796875 631.578125 -557.796875 C 644.992188 -557.796875 657.847656 -551.460938 670.140625 -538.796875 C 682.441406 -526.128906 688.59375 -511.972656 688.59375 -496.328125 C 688.59375 -478.441406 682.816406 -450.117188 671.265625 -411.359375 C 659.710938 -372.609375 641.640625 -317.460938 617.046875 -245.921875 C 587.984375 -159.472656 566.367188 -92.398438 552.203125 -44.703125 C 538.046875 2.984375 530.96875 39.492188 530.96875 64.828125 C 530.96875 72.285156 532.457031 77.875 535.4375 81.59375 C 538.425781 85.320312 542.15625 87.1875 546.625 87.1875 C 563.769531 87.1875 588.175781 63.898438 619.84375 17.328125 C 651.519531 -29.242188 678.535156 -75.265625 700.890625 -120.734375 C 706.109375 -128.921875 710.578125 -133.015625 714.296875 -133.015625 C 716.535156 -133.015625 718.398438 -131.523438 719.890625 -128.546875 C 721.378906 -125.566406 722.125 -122.210938 722.125 -118.484375 C 722.125 -113.273438 721.007812 -107.6875 718.78125 -101.71875 C 709.082031 -79.363281 693.054688 -50.488281 670.703125 -15.09375 C 648.347656 20.300781 624.875 51.226562 600.28125 77.6875 C 575.6875 104.144531 554.820312 117.375 537.6875 117.375 Z M 537.6875 117.375 "/></g></g></g><g fill="#ffa800" fill-opacity="1"><g transform="translate(3263.848552, 1399.829333)"><g><path d="M 289.515625 124.078125 C 267.160156 124.078125 247.226562 111.78125 229.71875 87.1875 C 212.207031 62.59375 203.453125 30.921875 203.453125 -7.828125 L 203.453125 -15.65625 C 163.203125 34.28125 125.566406 59.25 90.546875 59.25 C 71.171875 59.25 54.960938 52.539062 41.921875 39.125 C 28.878906 25.707031 22.359375 8.566406 22.359375 -12.296875 C 22.359375 -49.554688 32.234375 -86.441406 51.984375 -122.953125 C 71.734375 -159.472656 97.628906 -189.285156 129.671875 -212.390625 C 161.710938 -235.492188 195.617188 -247.046875 231.390625 -247.046875 C 245.546875 -247.046875 257.84375 -244.0625 268.28125 -238.09375 C 280.945312 -251.507812 296.96875 -258.21875 316.34375 -258.21875 C 333.488281 -258.21875 342.0625 -251.140625 342.0625 -236.984375 C 342.0625 -231.023438 341.316406 -226.550781 339.828125 -223.5625 C 321.941406 -181.09375 305.359375 -134.703125 290.078125 -84.390625 C 274.804688 -34.085938 267.171875 5.960938 267.171875 35.765625 C 267.171875 56.640625 269.59375 72.289062 274.4375 82.71875 C 279.28125 93.15625 285.800781 98.375 294 98.375 C 302.9375 97.625 315.414062 90.171875 331.4375 76.015625 C 347.457031 61.859375 365.710938 38.382812 386.203125 5.59375 C 406.703125 -27.195312 427.757812 -69.304688 449.375 -120.734375 C 453.84375 -128.921875 458.3125 -133.015625 462.78125 -133.015625 C 465.019531 -132.273438 467.070312 -130.597656 468.9375 -127.984375 C 470.800781 -125.378906 471.734375 -121.84375 471.734375 -117.375 C 471.734375 -112.15625 470.242188 -106.9375 467.265625 -101.71875 C 434.472656 -25.707031 402.613281 30.925781 371.6875 68.1875 C 340.757812 105.445312 313.367188 124.078125 289.515625 124.078125 Z M 87.1875 0 C 87.1875 17.132812 93.894531 25.703125 107.3125 25.703125 C 121.46875 25.703125 137.300781 17.878906 154.8125 2.234375 C 172.332031 -13.410156 189.660156 -33.53125 206.796875 -58.125 C 210.523438 -84.207031 216.488281 -109.726562 224.6875 -134.6875 C 232.882812 -159.65625 243.691406 -188.164062 257.109375 -220.21875 C 253.378906 -223.195312 247.414062 -224.6875 239.21875 -224.6875 C 222.820312 -224.6875 202.515625 -212.015625 178.296875 -186.671875 C 154.078125 -161.335938 132.835938 -130.785156 114.578125 -95.015625 C 96.316406 -59.242188 87.1875 -27.570312 87.1875 0 Z M 87.1875 0 "/></g></g></g><g fill="#ffa800" fill-opacity="1"><g transform="translate(3646.147969, 1399.829333)"><g><path d="M 266.046875 78.25 C 251.140625 78.25 237.535156 69.117188 225.234375 50.859375 C 212.941406 32.597656 206.796875 9.3125 206.796875 -19 C 206.796875 -58.5 212.195312 -100.789062 223 -145.875 C 233.8125 -190.96875 245.550781 -225.4375 258.21875 -249.28125 C 230.644531 -220.957031 198.785156 -180.898438 162.640625 -129.109375 C 126.503906 -77.316406 102.097656 -39.5 89.421875 -15.65625 C 84.210938 -8.195312 78.8125 -2.234375 73.21875 2.234375 C 67.625 6.703125 62.96875 8.9375 59.25 8.9375 C 52.539062 8.9375 46.578125 6.140625 41.359375 0.546875 C 36.140625 -5.035156 33.53125 -13.785156 33.53125 -25.703125 C 33.53125 -62.972656 37.070312 -99.675781 44.15625 -135.8125 C 51.238281 -171.957031 61.113281 -204.191406 73.78125 -232.515625 C 81.976562 -253.378906 99.863281 -263.8125 127.4375 -263.8125 C 137.863281 -263.8125 145.3125 -261.203125 149.78125 -255.984375 C 154.257812 -250.765625 155.378906 -243.6875 153.140625 -234.75 C 150.910156 -230.28125 142.898438 -213.140625 129.109375 -183.328125 C 115.328125 -153.515625 103.960938 -117 95.015625 -73.78125 C 112.898438 -111.78125 137.304688 -151.273438 168.234375 -192.265625 C 199.160156 -233.253906 225.429688 -263.066406 247.046875 -281.703125 C 255.242188 -286.171875 263.441406 -288.40625 271.640625 -288.40625 C 286.546875 -288.40625 300.332031 -283.1875 313 -272.75 C 325.664062 -262.320312 332 -249.65625 332 -234.75 C 332 -225.0625 323.800781 -198.976562 307.40625 -156.5 C 291.757812 -116.257812 279.835938 -82.164062 271.640625 -54.21875 C 263.441406 -26.269531 259.34375 0.367188 259.34375 25.703125 C 259.34375 33.160156 260.832031 38.75 263.8125 42.46875 C 266.789062 46.195312 270.515625 48.0625 274.984375 48.0625 C 296.597656 48.0625 323.054688 29.0625 354.359375 -8.9375 C 385.660156 -46.945312 410.253906 -84.210938 428.140625 -120.734375 C 432.609375 -128.921875 437.078125 -133.015625 441.546875 -133.015625 C 443.785156 -133.015625 445.832031 -131.523438 447.6875 -128.546875 C 449.550781 -125.566406 450.484375 -121.84375 450.484375 -117.375 C 450.484375 -112.15625 448.992188 -106.9375 446.015625 -101.71875 C 420.679688 -55.519531 391.804688 -13.976562 359.390625 22.90625 C 326.972656 59.800781 295.859375 78.25 266.046875 78.25 Z M 266.046875 78.25 "/></g></g></g><g clip-path="url(#7ed2094758)"><g fill="#ffa800" fill-opacity="1"><g transform="translate(4006.090833, 1399.829333)"><g><path d="M 118.484375 100.609375 C 92.398438 100.609375 71.71875 90.359375 56.4375 69.859375 C 41.164062 49.367188 33.53125 23.101562 33.53125 -8.9375 C 33.53125 -23.101562 36.507812 -39.875 42.46875 -59.25 C 48.4375 -78.625 56.640625 -96.878906 67.078125 -114.015625 C 61.109375 -134.140625 58.125 -153.515625 58.125 -172.140625 C 58.125 -204.191406 67.8125 -231.394531 87.1875 -253.75 C 106.5625 -276.101562 132.273438 -287.28125 164.328125 -287.28125 C 202.328125 -287.28125 230.828125 -273.863281 249.828125 -247.03125 C 268.835938 -220.207031 278.34375 -186.675781 278.34375 -146.4375 C 278.34375 -103.957031 269.023438 -59.988281 250.390625 -14.53125 C 309.265625 -22.726562 352.863281 -58.128906 381.1875 -120.734375 C 385.65625 -128.921875 389.753906 -133.015625 393.484375 -133.015625 C 399.441406 -133.015625 402.421875 -128.171875 402.421875 -118.484375 C 402.421875 -114.015625 402.050781 -110.664062 401.3125 -108.4375 C 396.09375 -92.78125 385.84375 -76.007812 370.5625 -58.125 C 355.289062 -40.238281 336.101562 -24.773438 313 -11.734375 C 289.894531 1.304688 264.925781 8.570312 238.09375 10.0625 C 223.195312 37.632812 205.6875 59.617188 185.5625 76.015625 C 165.4375 92.410156 143.078125 100.609375 118.484375 100.609375 Z M 81.609375 -172.140625 C 81.609375 -163.203125 82.722656 -152.398438 84.953125 -139.734375 C 112.523438 -175.503906 144.195312 -193.390625 179.96875 -193.390625 C 193.382812 -193.390625 205.304688 -190.96875 215.734375 -186.125 C 226.171875 -181.28125 231.390625 -176.25 231.390625 -171.03125 C 231.390625 -168.050781 229.15625 -165.441406 224.6875 -163.203125 C 179.226562 -140.847656 144.945312 -106.195312 121.84375 -59.25 C 148.675781 -28.695312 182.957031 -13.421875 224.6875 -13.421875 L 228.046875 -13.421875 C 236.984375 -34.285156 244.0625 -56.640625 249.28125 -80.484375 C 254.5 -104.328125 257.109375 -126.6875 257.109375 -147.5625 C 257.109375 -180.34375 249.28125 -207.910156 233.625 -230.265625 C 217.976562 -252.628906 194.503906 -263.8125 163.203125 -263.8125 C 141.585938 -263.8125 122.582031 -254.679688 106.1875 -236.421875 C 89.800781 -218.160156 81.609375 -196.734375 81.609375 -172.140625 Z M 98.375 27.953125 C 98.375 42.847656 101.539062 54.765625 107.875 63.703125 C 114.207031 72.648438 121.84375 77.125 130.78125 77.125 C 147.175781 77.125 162.828125 71.160156 177.734375 59.234375 C 192.640625 47.316406 205.679688 30.925781 216.859375 10.0625 C 175.867188 7.820312 140.84375 -7.828125 111.78125 -36.890625 C 102.84375 -13.785156 98.375 7.828125 98.375 27.953125 Z M 98.375 27.953125 "/></g></g></g></g></svg>